<?xml version="1.0" encoding="UTF-8"?>
<svg width="112.1" height="108.76" version="1.1" viewBox="0 0 29.66 28.777" xmlns="http://www.w3.org/2000/svg" xmlns:cc="http://creativecommons.org/ns#" xmlns:dc="http://purl.org/dc/elements/1.1/" xmlns:rdf="http://www.w3.org/1999/02/22-rdf-syntax-ns#" xmlns:xlink="http://www.w3.org/1999/xlink">
 <defs>
  <linearGradient id="linearGradient3215" x1="727.61" x2="727.61" y1="27.166" y2="-14.662" gradientTransform="matrix(.26458 0 0 .26458 4.7794 0)" gradientUnits="userSpaceOnUse" xlink:href="#linearGradient1590"/>
  <linearGradient id="linearGradient1590">
   <stop stop-color="#161210" offset="0"/>
   <stop stop-color="#655e5e" offset="1"/>
  </linearGradient>
  <linearGradient id="linearGradient3217" x1="206.38" x2="206.38" y1="3.2127" y2="13.591" gradientTransform="translate(4.7794)" gradientUnits="userSpaceOnUse" xlink:href="#linearGradient1618"/>
  <linearGradient id="linearGradient1618">
   <stop stop-color="#f77641" offset="0"/>
   <stop stop-color="#e019c5" offset="1"/>
  </linearGradient>
  <linearGradient id="linearGradient3219" x1="186.79" x2="186.79" y1="6.2994" y2="13.657" gradientTransform="translate(4.7794)" gradientUnits="userSpaceOnUse" xlink:href="#linearGradient1618"/>
  <clipPath id="clipPath2341">
   <path d="m726.15-5.9531c-6.4843 1.2022-12.437 5.0558-16.188 10.48-3.0889 4.4682-4.6807 9.9532-4.4648 15.381-0.69713-2.875-0.97014-5.8529-0.80664-8.8066 0.12435-2.2442 0.50026-4.4754 1.1172-6.6367-2.0984 1.8033-3.8535 4.0031-5.1465 6.4492-2.8507 5.393-3.3351 11.987-1.3027 17.738-0.88101-0.87907-1.6352-1.8847-2.2324-2.9766-0.28422-0.51976-0.53302-1.0597-0.74414-1.6133-2.1804 2.9713-3.238 6.7466-2.916 10.418 0.2812 3.2083 1.604 6.3168 3.7207 8.7441-0.34205 0.10534-0.69542 0.16943-1.0527 0.1875-0.67846 0.03439-1.3644-0.09533-1.9844-0.37305 0.15723 1.0786 0.42628 2.1419 0.80468 3.1641 1.675 4.5248 5.572 8.1646 10.199 9.5312 4.6273 1.3666 9.8758 0.42593 13.74-2.4629zm39.373 0.68359c0.62094 0.9565 1.1955 1.9431 1.6816 2.9746 1.6708 3.5452 2.5028 7.4824 2.4082 11.4l-4.6758 2.6406 5.0879 41.525c3.8644 2.8888 9.113 3.8295 13.74 2.4629 4.6273-1.3666 8.5242-5.0064 10.199-9.5312 0.37837-1.0222 0.64761-2.0855 0.80469-3.1641-0.61992 0.27772-1.3059 0.40734-1.9844 0.37305-0.35716-0.01814-0.71279-0.08213-1.0547-0.1875 2.1167-2.4273 3.4412-5.5358 3.7226-8.7441 0.32202-3.6714-0.7356-7.4467-2.916-10.418-0.21128 0.55353-0.45985 1.0935-0.74414 1.6133-0.59721 1.0919-1.3514 2.0975-2.2324 2.9766 2.0324-5.7515 1.548-12.345-1.3027-17.738-1.293-2.4461-3.0481-4.6459-5.1465-6.4492 0.6169 2.1613 0.99101 4.3925 1.1152 6.6367 0.16365 2.9538-0.10771 5.9316-0.80469 8.8066 0.21581-5.4276-1.3779-10.913-4.4668-15.381-3.2117-4.6459-8.0387-8.1343-13.432-9.7969z" fill="url(#linearGradient2345)" stop-color="#000000" style="font-variation-settings:normal"/>
  </clipPath>
  <filter id="filter2332" x="-.12616" y="-.1071" width="1.2523" height="1.2142" color-interpolation-filters="sRGB">
   <feGaussianBlur stdDeviation="4.4071897"/>
  </filter>
  <linearGradient id="linearGradient3221" x1="205.25" x2="205.25" y1="2.5518" y2="7.6882" gradientTransform="translate(4.7794)" gradientUnits="userSpaceOnUse" xlink:href="#linearGradient1675"/>
  <linearGradient id="linearGradient1675">
   <stop stop-color="#cbbeb7" offset="0"/>
   <stop stop-color="#655e5e" offset="1"/>
  </linearGradient>
  <linearGradient id="linearGradient3223" x1="202.21" x2="202.21" y1="2.2016" y2="4.7085" gradientTransform="translate(4.7794)" gradientUnits="userSpaceOnUse" xlink:href="#linearGradient1675"/>
  <linearGradient id="linearGradient3225" x1="195.39" x2="195.39" y1="10.627" y2="-2.7322" gradientTransform="translate(4.7794)" gradientUnits="userSpaceOnUse" xlink:href="#linearGradient1590"/>
  <clipPath id="clipPath2257">
   <path d="m726.81 48.779c-2.6294-2.7461-4.9308-5.8061-6.8395-9.0942-3.5508-6.1168-5.7337-13.085-5.8542-20.157-0.12057-7.0717 1.8819-14.232 6.0213-19.967 3.4346-4.7585 8.2533-8.4433 13.594-10.875 3.4565-1.5739 7.1975-2.6504 10.995-2.6232 3.7979 0.02714 7.6625 1.2302 10.492 3.7634 1.5047 1.3469 2.699 3.0598 3.3328 4.9772 0.30765 0.93055 0.48283 1.9016 0.80746 2.8263 0.32466 0.92473 0.82492 1.828 1.6263 2.3921 0.81698 0.57508 1.8453 0.73398 2.7846 1.0744 1.3874 0.5028 2.6075 1.4246 3.541 2.5676 0.9335 1.143 1.5866 2.5014 1.9843 3.9226 0.62229 2.2234 0.62229 4.6175 0 6.841-1.5262-1.0292-3.1607-1.8979-4.8676-2.5873-6.3271-2.5552-13.656-2.523-19.96 0.0877 1.974 0.18336 3.9066 0.80155 5.6205 1.7979 3.1417 1.8263 5.5006 4.9522 6.3954 8.4742l-15.599 1.8743-8.425 6.9293-1.2279 11.314 6.7971 9.7352 5.35 5.8762-11.314 2.1049" fill="url(#linearGradient2261)" stop-color="#000000" style="font-variation-settings:normal"/>
  </clipPath>
  <filter id="filter2249" x="-.1395" y="-.10721" width="1.279" height="1.2144" color-interpolation-filters="sRGB">
   <feGaussianBlur stdDeviation="1.9458257"/>
  </filter>
  <linearGradient id="linearGradient3227" x1="191.85" x2="191.85" y1="5.1134" y2="10.154" gradientTransform="translate(4.7794)" gradientUnits="userSpaceOnUse" xlink:href="#linearGradient1618"/>
  <clipPath id="clipPath1777">
   <path d="m744.72-13.938c-3.7979-0.02715-7.5396 1.0491-10.996 2.623-5.3409 2.432-10.159 6.1165-13.594 10.875-4.1394 5.7349-6.142 12.897-6.0215 19.969 0.029 1.6996 0.18383 3.3911 0.4414 5.0684 1.6454-1.5478 3.569-2.8005 5.668-3.6367-1.8794 6.7193-1.0109 14.166 2.3652 20.271 3.3762 6.1059 9.2201 10.8 15.91 12.781 0.56633 0.16769 1.1392 0.31306 1.7168 0.44141l-2.1875-2.4023-6.7969-9.7344 1.2266-11.314 8.4258-6.9297 15.451-1.8574c-0.11346-0.07336-0.2208-0.15598-0.33594-0.22656-0.0661-0.04076-0.1327-0.08116-0.19921-0.12109-0.50503-0.3013-1.0224-0.58201-1.5527-0.83594-0.0344-0.01634-0.0695-0.03074-0.10352-0.04687-1.711-0.80684-3.5371-1.3638-5.4121-1.6211 1.9385-0.61936 3.9428-1.0054 5.9668-1.1992-1.1705-1.8091-2.7479-3.3562-4.6113-4.4395-1.714-0.9964-3.647-1.6155-5.6211-1.7988 6.3044-2.6107 13.634-2.6431 19.961-0.08789 1.7069 0.68934 3.3409 1.5587 4.8672 2.5879 0.62229-2.2234 0.62229-4.6184 0-6.8418-0.39776-1.4211-1.0509-2.7789-1.9844-3.9219-0.93354-1.143-2.1536-2.0656-3.541-2.5684-0.93932-0.3404-1.9662-0.49914-2.7832-1.0742-0.80141-0.56412-1.3023-1.4678-1.627-2.3926-0.32462-0.92473-0.50094-1.8956-0.80859-2.8262-0.63376-1.9175-1.8274-3.6296-3.332-4.9766-2.8298-2.5332-6.6943-3.7365-10.492-3.7637z" fill="url(#linearGradient1781)" stop-color="#000000" style="font-variation-settings:normal"/>
  </clipPath>
  <filter id="filter1773" x="-.063586" y="-.079798" width="1.1272" height="1.1596" color-interpolation-filters="sRGB">
   <feGaussianBlur stdDeviation="2.221288"/>
  </filter>
  <linearGradient id="linearGradient3229" x1="229.79" x2="229.79" y1="7.5444" y2="15.403" gradientTransform="translate(-26.941)" gradientUnits="userSpaceOnUse" xlink:href="#linearGradient1675"/>
  <clipPath id="clipPath1835">
   <path d="m197.5 5.0865c-2.443 0-4.4465 1.7939-4.7847 4.1403h-3.2008v1.4004h3.2008c0.33823 2.3465 2.3417 4.1403 4.7847 4.1403 2.6816 0 4.8405-2.1589 4.8405-4.8405 0-2.6816-2.1589-4.8405-4.8405-4.8405zm0 1.5317c0.35326 0 0.6926 0.056018 1.0113 0.15761l-0.94361 1.634c-0.0226-9.789e-4 -0.0449-0.0031-0.0677-0.0031s-0.0451 0.00212-0.0677 0.0031l-0.94362-1.634c0.31874-0.1016 0.65805-0.15761 1.0113-0.15761zm-2.2226 0.85886 0.94154 1.6309c-0.0246 0.038545-0.0476 0.078023-0.0687 0.11886h-1.8841c0.14745-0.68896 0.50924-1.2944 1.0113-1.7498zm4.4452 0c0.50196 0.45533 0.86339 1.0608 1.0108 1.7498h-1.8836c-0.0211-0.040833-0.0441-0.080311-0.0687-0.11886zm-5.4565 3.1502h1.8841c0.0211 0.04083 0.0441 0.08031 0.0687 0.11886l-0.94154 1.6309c-0.50207-0.45533-0.86386-1.0608-1.0113-1.7498zm4.5837 0h1.8836c-0.14741 0.68896-0.50884 1.2944-1.0108 1.7498l-0.94154-1.6309c0.0246-0.03855 0.0476-0.07802 0.0687-0.11886zm-1.4175 0.817c0.0226 9.79e-4 0.0449 0.0031 0.0677 0.0031s0.0451-0.0021 0.0677-0.0031l0.94361 1.634c-0.31871 0.1016-0.65805 0.15761-1.0113 0.15761s-0.69257-0.05602-1.0113-0.15761z" fill="url(#linearGradient1839)" stop-color="#000000" style="paint-order:stroke markers fill"/>
  </clipPath>
  <filter id="filter1937" x="-.12939" y="-.16238" width="1.2588" height="1.3248" color-interpolation-filters="sRGB">
   <feGaussianBlur stdDeviation="1.1958937"/>
  </filter>
  <linearGradient id="linearGradient3231" x1="196.91" x2="196.91" y1="18.829" y2="8.2222" gradientTransform="translate(4.7794)" gradientUnits="userSpaceOnUse" xlink:href="#linearGradient1590"/>
  <linearGradient id="linearGradient3233" x1="193.04" x2="193.04" y1=".33698" y2="5.1134" gradientTransform="translate(4.7794)" gradientUnits="userSpaceOnUse" xlink:href="#linearGradient1618"/>
  <linearGradient id="linearGradient3235" x1="196.97" x2="196.97" y1="4.6642" y2="1.5855" gradientTransform="translate(4.7794)" gradientUnits="userSpaceOnUse" xlink:href="#linearGradient1590"/>
  <filter id="filter2490" x="-.052335" y="-.067183" width="1.1047" height="1.1344" color-interpolation-filters="sRGB">
   <feGaussianBlur stdDeviation="1.7125893"/>
  </filter>
  <linearGradient id="linearGradient3237" x1="200.17" x2="200.17" y1="10.627" y2="21.509" gradientUnits="userSpaceOnUse" xlink:href="#linearGradient1618"/>
  <linearGradient id="linearGradient3239" x1="759.04" x2="747.82" y1="20.611" y2="17.604" gradientUnits="userSpaceOnUse">
   <stop offset="0"/>
   <stop stop-opacity="0" offset="1"/>
  </linearGradient>
  <clipPath id="clipPath2023">
   <path d="m757.62 18.014c-3.0121-0.01107-6.0241 0.43441-8.8946 1.3516 1.875 0.2573 3.7011 0.81425 5.4121 1.6211 0.034 0.01614 0.0692 0.03054 0.10356 0.04687 0.5303 0.25392 1.0477 0.53464 1.5527 0.83594 0.0665 0.03993 0.13304 0.08033 0.19918 0.12109 0.44576 0.27327 0.87874 0.56847 1.3008 0.87695 0.18709 0.13909 0.36926 0.28348 0.55079 0.42969 0.10545 0.08309 0.20674 0.17058 0.31068 0.25586 3.5274 2.9752 5.9305 7.2852 6.4688 11.871 0.38358 3.2679-0.15383 6.6398-1.5332 9.627-6e-4 0.0013-1e-3 0.0026-2e-3 0.0038-2.077 4.0742-5.8685 7.2029-10.182 8.7559-4.5978 1.6554-9.7285 1.5905-14.414 0.20311-6.6901-1.9809-12.534-6.6753-15.91-12.781-3.3762-6.1059-4.2446-13.552-2.3652-20.271-3.6281 1.4454-6.7585 4.1072-8.7695 7.4551-2.4988 4.1599-3.213 9.3533-1.9297 14.033-1.1116-0.24563-2.1544-0.79689-2.9824-1.5781-0.69597-0.65663-1.2397-1.4742-1.5781-2.3691-0.83623 1.8104-1.4278 3.7339-1.7539 5.7012-0.64249 3.8754-0.24416 7.8879 0.90429 11.645 1.1486 3.7566 3.0325 7.2651 5.3222 10.457 6.5584 9.1423 16.656 15.733 27.715 17.805 11.706 2.1927 24.25-0.76229 33.853-7.8066 5.5096-4.0414 10.097-9.413 12.865-15.66 2.7681-6.2472 3.6605-13.375 2.1328-20.035-1.7966-7.8324-6.9932-14.824-13.975-18.803-4.3634-2.4869-9.3822-3.7725-14.402-3.791z" fill="url(#linearGradient2027)" stop-color="#000000" style="font-variation-settings:normal"/>
  </clipPath>
  <filter id="filter2181" x="-.2069" y="-.345" width="1.4138" height="1.69" color-interpolation-filters="sRGB">
   <feGaussianBlur stdDeviation="3.7709527"/>
  </filter>
 </defs>
 <metadata>
  <rdf:RDF>
   <cc:Work rdf:about="">
    <dc:format>image/svg+xml</dc:format>
    <dc:type rdf:resource="http://purl.org/dc/dcmitype/StillImage"/>
    <dc:title/>
   </cc:Work>
  </rdf:RDF>
 </metadata>
 <g transform="translate(-256.93 141.16)">
  <g transform="matrix(1 0 0 1 75.483 -136.15)">
   <g transform="translate(-5.4711)">
    <path d="m201.83-5.0105c-1.261-0.00901-2.4317 0.34147-3.467 0.81287-0.29734 0.1354-0.57711 0.30719-0.86196 0.46871a1.323 1.323 0 0 0-1.7425-0.00827c-0.46792 0.40624-0.82041 0.92267-1.0284 1.5059-1e-3 0.00335-8.7e-4 0.00647-2e-3 0.00982-1.0683 0.50463-2.0153 1.2353-2.7719 2.1523a1.323 1.323 0 0 0-1.2929 0.24701c-0.68197 0.58608-1.2485 1.2971-1.6686 2.0919-0.50542 0.95616-0.76137 2.011-0.80357 3.0763a1.323 1.323 0 0 0-0.22582 0.23771c-0.77238 1.0526-1.1368 2.3539-1.0227 3.6551 0.0449 0.51185 0.17257 1.0078 0.35708 1.481a1.323 1.323 0 0 0-0.16743 0.85835c0.0548 0.37575 0.14819 0.74679 0.28112 1.1059 0.46642 1.26 1.3997 2.263 2.5637 2.8856 0.35622 0.99506 0.84122 1.9211 1.432 2.7445 1.9346 2.6968 4.8824 4.6253 8.1644 5.24 3.4768 0.65122 7.1412-0.21468 9.9828-2.2991 1.6262-1.1928 2.9934-2.7831 3.8313-4.6741 0.16617-0.37501 0.27069-0.76294 0.38758-1.1482 1.0457-0.63175 1.8831-1.5788 2.3161-2.7487 0.13286-0.35893 0.22636-0.72985 0.28112-1.1059a1.323 1.323 0 0 0-0.16744-0.85886c0.18445-0.47294 0.31221-0.96883 0.35709-1.4805 0.11413-1.3012-0.25028-2.6025-1.0227-3.6551a1.323 1.323 0 0 0-0.22582-0.23823c-0.0423-1.0652-0.29823-2.1198-0.80357-3.0758-0.42011-0.79477-0.98667-1.5058-1.6686-2.0919a1.323 1.323 0 0 0-1.2976-0.24495c-1.0011-1.2135-2.3281-2.1284-3.8287-2.5911a1.323 1.323 0 0 0-1.2712 0.27854c-0.25517-0.49163-0.56761-0.94204-0.9648-1.2976-1.0396-0.93057-2.371-1.3241-3.6489-1.3333z" color="#000000" color-rendering="auto" dominant-baseline="auto" fill="#fff" image-rendering="auto" shape-rendering="auto" solid-color="#000000" stop-color="#000000" style="font-feature-settings:normal;font-variant-alternates:normal;font-variant-caps:normal;font-variant-east-asian:normal;font-variant-ligatures:normal;font-variant-numeric:normal;font-variant-position:normal;font-variation-settings:normal;inline-size:0;isolation:auto;mix-blend-mode:normal;shape-margin:0;shape-padding:0;text-decoration-color:#000000;text-decoration-line:none;text-decoration-style:solid;text-indent:0;text-orientation:mixed;text-transform:none;white-space:normal"/>
    <path d="m196.91-1.5751c-1.7156 0.31807-3.2907 1.3377-4.2829 2.773-0.81727 1.1822-1.2384 2.6335-1.1813 4.0695-0.18444-0.76067-0.25668-1.5486-0.21342-2.3301 0.0329-0.59378 0.13236-1.1841 0.29559-1.756-0.55519 0.47713-1.0196 1.0592-1.3617 1.7064-0.75425 1.4269-0.88242 3.1715-0.34469 4.6933-0.2331-0.23259-0.43265-0.49865-0.59066-0.78755-0.0752-0.13752-0.14102-0.28039-0.19688-0.42685-0.57689 0.78616-0.85673 1.785-0.77153 2.7564 0.0744 0.84887 0.42438 1.6713 0.98443 2.3136-0.0905 0.02787-0.18399 0.04483-0.27853 0.04961-0.17951 0.0091-0.36101-0.02522-0.52503-0.0987 0.0416 0.28538 0.11278 0.5667 0.2129 0.83716 0.44317 1.1972 1.4742 2.1602 2.6985 2.5218 1.2243 0.36158 2.613 0.11269 3.6354-0.65164zm10.417 0.18087c0.16429 0.25307 0.31631 0.5141 0.44494 0.78703 0.44207 0.93799 0.66221 1.9797 0.63717 3.0164l-1.2371 0.69867 1.3462 10.987c1.0225 0.76433 2.4111 1.0132 3.6354 0.65164 1.2243-0.36158 2.2554-1.3246 2.6986-2.5218 0.10011-0.27046 0.17134-0.55178 0.2129-0.83716-0.16402 0.07348-0.34552 0.10778-0.52503 0.0987-0.0945-0.0048-0.18859-0.02173-0.27905-0.04961 0.56005-0.64223 0.91049-1.4647 0.98495-2.3136 0.0852-0.97139-0.19463-1.9703-0.77153-2.7564-0.0559 0.14646-0.12167 0.28933-0.19689 0.42685-0.15801 0.2889-0.35756 0.55496-0.59066 0.78755 0.53774-1.5218 0.40957-3.2664-0.34468-4.6933-0.3421-0.64719-0.80648-1.2292-1.3617-1.7064 0.16323 0.57185 0.26221 1.1622 0.29508 1.756 0.0433 0.78152-0.0285 1.5694-0.21291 2.3301 0.0571-1.4361-0.36457-2.8873-1.1818-4.0695-0.84976-1.2292-2.1269-2.1522-3.5538-2.5921z" fill="url(#linearGradient3215)" stop-color="#000000" style="font-variation-settings:normal"/>
    <path d="m209.75 1.4568c-0.14811 1.316e-4 -0.29632 0.05705-0.40979 0.17053l-4e-3 0.00362c-0.22723 0.22723-0.22723 0.59288 0 0.8201l4e-3 0.00362c0.18675 0.18675 0.46615 0.21737 0.68626 0.097152l0.66197 0.66146-0.75189 0.75293 0.23461 0.23254 0.75138-0.75138h5.1e-4l0.0579-0.058394 1e-3 -0.00103 0.17363-0.17518-0.89452-0.89452c0.12082-0.22025 0.0904-0.50028-0.0966-0.6873l-4e-3 -0.00362c-0.11349-0.11348-0.2617-0.1704-0.40979-0.17053zm3.0417 4.5651c-0.26444 0-0.48362 0.17643-0.55397 0.41755h-1.3121v0.33021h1.3121c0.0703 0.24111 0.28953 0.41755 0.55397 0.41755h5e-3c0.32135 0 0.57981-0.25898 0.57981-0.58033v-0.00465c0-0.32135-0.25846-0.58033-0.57981-0.58033zm-1.5317 2.6732v0.33021h2.6122v0.94723h-0.71882v0.83819h0.33021v-0.50798h0.71882v-1.6077z" color="#000000" color-rendering="auto" dominant-baseline="auto" fill="url(#linearGradient3217)" image-rendering="auto" shape-rendering="auto" solid-color="#000000" stop-color="#000000" style="font-feature-settings:normal;font-variant-alternates:normal;font-variant-caps:normal;font-variant-east-asian:normal;font-variant-ligatures:normal;font-variant-numeric:normal;font-variant-position:normal;font-variation-settings:normal;inline-size:0;isolation:auto;mix-blend-mode:normal;shape-margin:0;shape-padding:0;text-decoration-color:#000000;text-decoration-line:none;text-decoration-style:solid;text-indent:0;text-orientation:mixed;text-transform:none;white-space:normal"/>
    <path d="m192.91 4.132c-0.32135-3e-7 -0.58032 0.25898-0.58032 0.58033v0.00465c0 0.26443 0.17643 0.48414 0.41754 0.55449v3.8907h0.33021v-3.8907c0.24112-0.070349 0.41755-0.29005 0.41755-0.55449v-0.00465c0-0.32135-0.25846-0.58033-0.57981-0.58033zm-1.3374 2.1673c-0.32135 0-0.58033 0.25898-0.58033 0.58033v0.00465c0 0.32135 0.25898 0.58033 0.58033 0.58033h5e-3c0.32135 0 0.58032-0.25898 0.58032-0.58033v-0.00465c0-0.32135-0.25897-0.58033-0.58032-0.58033zm-0.46613 1.6965v1.3989h-1.527v0.3297h0.74207v0.57258h0.33021v-0.57258h0.78703v-1.3984h1.5352v-0.33021zm-1.1658 4.1977-0.23461 0.23409 1.172 1.17 0.23255-0.23254z" color="#000000" color-rendering="auto" dominant-baseline="auto" fill="url(#linearGradient3219)" image-rendering="auto" shape-rendering="auto" solid-color="#000000" stop-color="#000000" style="font-feature-settings:normal;font-variant-alternates:normal;font-variant-caps:normal;font-variant-east-asian:normal;font-variant-ligatures:normal;font-variant-numeric:normal;font-variant-position:normal;font-variation-settings:normal;inline-size:0;isolation:auto;mix-blend-mode:normal;shape-margin:0;shape-padding:0;text-decoration-color:#000000;text-decoration-line:none;text-decoration-style:solid;text-indent:0;text-orientation:mixed;text-transform:none;white-space:normal"/>
    <path transform="matrix(.26458 0 0 .26458 4.7794 0)" d="m744.72-13.938c-3.7979-0.02715-7.5396 1.0491-10.996 2.623-5.3409 2.432-10.159 6.1165-13.594 10.875-4.1394 5.7349-6.142 12.897-6.0215 19.969 0.029 1.6996 0.18383 3.3911 0.4414 5.0684-1.1987 1.1276-2.254 2.4074-3.1016 3.8184-2.4988 4.1599-3.2131 9.3533-1.9297 14.033-1.1116-0.24563-2.1544-0.79689-2.9824-1.5781-0.69596-0.65663-1.2397-1.4742-1.5781-2.3691-0.83622 1.8104-1.4278 3.7339-1.7539 5.7012-0.64248 3.8754-0.24415 7.8879 0.9043 11.645 1.1486 3.7566 3.0325 7.2651 5.3223 10.457 6.5584 9.1423 16.656 15.733 27.715 17.805 11.706 2.1927 24.25-0.76228 33.854-7.8066 5.5096-4.0414 10.097-9.413 12.865-15.66 2.7681-6.2472 3.6605-13.375 2.1328-20.035-0.91696-3.9975-2.7237-7.7723-5.1973-11.043-7e-3 -1.5244-0.14244-3.0483-0.43359-4.5449-0.87878-4.5172-3.0572-8.7738-6.209-12.127-1.3534-1.4399-2.8882-2.705-4.5469-3.7793-0.077-0.51457-0.182-1.0262-0.32226-1.5273-0.39776-1.4211-1.0509-2.7789-1.9844-3.9219-0.93354-1.143-2.1536-2.0656-3.541-2.5684-0.93932-0.3404-1.9662-0.49914-2.7832-1.0742-0.80141-0.56412-1.3023-1.4678-1.627-2.3926-0.32462-0.92473-0.50094-1.8956-0.80859-2.8262-0.63376-1.9175-1.8274-3.6296-3.332-4.9766-2.8298-2.5332-6.6943-3.7365-10.492-3.7637zm12.9 31.951c-0.67421-0.0025-1.3489 0.02687-2.0215 0.07031 0.67299-0.04502 1.3465-0.07279 2.0215-0.07031zm14.402 3.791c0.43623 0.24862 0.86533 0.50953 1.2871 0.78125-0.422-0.27169-0.85077-0.53256-1.2871-0.78125zm-15.693 0.41211c0.32582 0.21066 0.6518 0.42159 0.96485 0.65039 0.18708 0.13909 0.36925 0.28348 0.55078 0.42969 0.10545 0.08309 0.20661 0.17058 0.31054 0.25586 3.5274 2.9752 5.9304 7.2852 6.4688 11.871 0.38359 3.2679-0.15382 6.6398-1.5332 9.627-6e-4 0.0013-1e-3 0.0027-2e-3 0.0039-2.077 4.0742-5.8685 7.2029-10.182 8.7559-4.042 1.4553-8.496 1.5781-12.697 0.64453l-2.1875-2.4023-6.7969-9.7344 1.2266-11.314 8.4258-6.9297z" clip-path="url(#clipPath2341)" filter="url(#filter2332)" stop-color="#000000" style="font-variation-settings:normal"/>
    <path d="m199.79 0.8816 1.9585 3.7827 1.6076 0.32763c0.61269-0.15127 1.243-0.22815 1.8743-0.22583 1.3282 0.00489 2.6561 0.34504 3.8106 1.003 0.9044 0.51546 1.6945 1.223 2.3223 2.0531-2e-3 -0.40334-0.0377-0.80654-0.11472-1.2025-0.23252-1.1952-0.80888-2.3214-1.6428-3.2086-0.75326-0.80137-1.7137-1.4066-2.7616-1.7405z" fill="url(#linearGradient3221)" stop-color="#000000" style="font-variation-settings:normal"/>
    <path d="m202.88 5.1235-0.14121 9.4032 6.1099 0.02804 0.79049-8.4072" fill="#5f5858" stop-color="#000000" style="font-variation-settings:normal"/>
    <path d="m198.24 5.9173h7.3792v8.2146h-7.3792z" fill="#161210" stop-color="#000000" style="paint-order:stroke markers fill"/>
    <path d="m205.79 3.0979c0.16134 0.19279 0.39518 0.32341 0.64394 0.35968 0.29319 0.04275 0.60323-0.048059 0.82702-0.24223 0.2238-0.19417 0.35742-0.48831 0.35645-0.78459l0.82242 0.62453c-8e-3 0.12778-0.0203 0.25526-0.0379 0.38205-0.0179 0.12856-0.041 0.25697-0.0826 0.37994-0.10693 0.31632-0.33911 0.58839-0.63468 0.74373-0.29558 0.15534-0.65134 0.19225-0.97251 0.10091-0.32117-0.091342-0.60426-0.30995-0.77386-0.59758-0.16959-0.28763-0.22385-0.64116-0.14831-0.96642z" fill="url(#linearGradient3223)" stop-color="#000000" style="font-variation-settings:normal"/>
    <path d="m197.08 12.906c-0.6957-0.72658-1.3046-1.5362-1.8096-2.4062-0.93948-1.6184-1.517-3.4621-1.5489-5.3331-0.0319-1.871 0.49792-3.7656 1.5931-5.2829 0.90875-1.259 2.1837-2.234 3.5968-2.8774 0.91453-0.41644 1.9043-0.70124 2.9092-0.69406 1.0049 0.00718 2.0274 0.32549 2.7761 0.99572 0.39811 0.35638 0.71411 0.80956 0.88179 1.3169 0.0814 0.24621 0.12775 0.50312 0.21364 0.74779 0.0859 0.24467 0.21826 0.48366 0.4303 0.63291 0.21616 0.15216 0.48824 0.1942 0.73677 0.28426 0.36709 0.13303 0.6899 0.37693 0.9369 0.67933 0.24699 0.30241 0.41978 0.66184 0.52502 1.0378 0.16465 0.58828 0.16465 1.2217 0 1.81-0.40382-0.27231-0.83626-0.50216-1.2879-0.68455-1.674-0.67607-3.6131-0.66755-5.2812 0.023204 0.5223 0.048515 1.0336 0.21208 1.4871 0.47571 0.83123 0.48322 1.4554 1.3103 1.6921 2.2421l-4.1272 0.4959-2.2291 1.8334-0.32487 2.9935 1.7984 2.5758 1.4155 1.5547-2.9935 0.55692" fill="url(#linearGradient3225)" stop-color="#000000" style="font-variation-settings:normal"/>
    <path transform="matrix(.26458 0 0 .26458 4.7794 0)" d="m725.09-10.35c-1.1082 0.9621-1.9622 2.2134-2.4551 3.5957-0.69165 1.9397-0.6562 4.1125 0 6.0645 0.6562 1.952 1.9152 3.6808 3.5078 4.9863 1.7964 1.4725 3.9766 2.3816 6.2617 2.8516v4.4199h-4.4629c-0.62713-1.8798-2.3767-3.2363-4.4726-3.2363-2.6238 0-4.7363 2.1126-4.7363 4.7363 0 2.6238 2.1126 4.7363 4.7363 4.7363 2.0968 0 3.8462-1.3592 4.4726-3.2402h7.4609v-7.0508c0.20258 0.00896 0.4051 0.026349 0.60742 0.029297 4.8663 0.070858 9.7426-1.5131 13.639-4.4297-1.2173-0.53951-2.3484-1.2747-3.334-2.1699-0.60907-0.55324-1.162-1.1664-1.7754-1.7148-0.61342-0.54845-1.3004-1.0378-2.084-1.2891-1.2259-0.39308-2.5664-0.16479-3.7871 0.24414-1.2207 0.40893-2.3817 0.9929-3.623 1.334-2.0891 0.57403-4.4042 0.40901-6.3144-0.61328-1.5894-0.85059-2.8616-2.2795-3.5215-3.957-0.65987-1.6776-0.70296-3.5914-0.11914-5.2969zm0.0293 29.676v5.3359h-8.9473v2.5039h11.441v-5.3457h4.9766v-2.4941zm-1.6504 9.9941c-1.0777 2e-6 -1.9453 0.86761-1.9453 1.9453s0.86762 1.9453 1.9453 1.9453c1.0778 0 1.9453-0.86761 1.9453-1.9453s-0.86754-1.9453-1.9453-1.9453z" clip-path="url(#clipPath2257)" color="#000000" color-rendering="auto" dominant-baseline="auto" filter="url(#filter2249)" image-rendering="auto" opacity=".875" shape-rendering="auto" solid-color="#000000" stop-color="#000000" style="font-feature-settings:normal;font-variant-alternates:normal;font-variant-caps:normal;font-variant-east-asian:normal;font-variant-ligatures:normal;font-variant-numeric:normal;font-variant-position:normal;font-variation-settings:normal;inline-size:0;isolation:auto;mix-blend-mode:normal;shape-margin:0;shape-padding:0;text-decoration-color:#000000;text-decoration-line:none;text-decoration-style:solid;text-indent:0;text-orientation:mixed;text-transform:none;white-space:normal"/>
    <path d="m196.63 5.1134v1.4118h-2.3673v0.66249h3.0272v-1.4144h1.3167v-0.65991zm-0.43667 2.6443c-0.28514 3e-7 -0.51469 0.22955-0.51469 0.5147s0.22955 0.5147 0.51469 0.5147c0.28516 0 0.5147-0.22955 0.5147-0.5147s-0.22954-0.5147-0.5147-0.5147z" color="#000000" color-rendering="auto" dominant-baseline="auto" fill="url(#linearGradient3227)" image-rendering="auto" shape-rendering="auto" solid-color="#000000" stop-color="#000000" style="font-feature-settings:normal;font-variant-alternates:normal;font-variant-caps:normal;font-variant-east-asian:normal;font-variant-ligatures:normal;font-variant-numeric:normal;font-variant-position:normal;font-variation-settings:normal;inline-size:0;isolation:auto;mix-blend-mode:normal;shape-margin:0;shape-padding:0;text-decoration-color:#000000;text-decoration-line:none;text-decoration-style:solid;text-indent:0;text-orientation:mixed;text-transform:none;white-space:normal"/>
    <path transform="matrix(.26458 0 0 .26458 4.7794 0)" d="m757.62 18.014c-3.0121-0.01107-6.0241 0.43441-8.8945 1.3516 0.19537 0.02681 0.38779 0.07025 0.58203 0.10352-0.93447-0.14601-1.8846-0.24414-2.8613-0.24414-9.2335 0-16.806 6.78-18.084 15.648h-8.2754c-1.1487-4.5477-1.1331-9.3932 0.13086-13.912-3.6281 1.4454-6.7585 4.1072-8.7695 7.4551-2.4988 4.1599-3.2131 9.3533-1.9297 14.033-1.1116-0.24563-2.1544-0.79689-2.9824-1.5781-0.69596-0.65663-1.2397-1.4742-1.5781-2.3691-0.83622 1.8104-1.4278 3.7339-1.7539 5.7012-0.64248 3.8754-0.24415 7.8879 0.9043 11.645 1.1486 3.7566 3.0325 7.2651 5.3223 10.457 6.5584 9.1423 16.656 15.733 27.715 17.805 11.706 2.1927 24.25-0.76228 33.854-7.8066 5.5096-4.0414 10.097-9.413 12.865-15.66 2.7681-6.2472 3.6605-13.375 2.1328-20.035-1.7966-7.8324-6.9931-14.824-13.975-18.803-4.3634-2.4869-9.3822-3.7725-14.402-3.791zm-11.174 7c1.3352 0 2.6177 0.21172 3.8223 0.5957l-3.5664 6.1758c-0.0854-0.0037-0.16969-0.01172-0.25586-0.01172-0.0862 0-0.17044 8e-3 -0.25586 0.01172l-3.5664-6.1758c1.2047-0.38398 2.4871-0.5957 3.8223-0.5957zm-8.4004 3.2461 3.5586 6.1641c-0.093 0.14568-0.18002 0.29489-0.25976 0.44922h-7.1211c0.55729-2.604 1.9247-4.8924 3.8223-6.6133zm16.801 0c1.8972 1.7209 3.2632 4.0093 3.8203 6.6133h-7.1191c-0.0797-0.15433-0.16679-0.30354-0.25976-0.44922zm9.6699 6.5273c0.0332 0.21276 0.0823 0.42264 0.10742 0.63672 6e-3 0.0487 6e-3 0.09774 0.0117 0.14648-0.0278-0.26492-0.0802-0.52184-0.11914-0.7832zm0.13867 1.0156c0.0505 0.52929 0.0772 1.0601 0.0801 1.5918-4e-3 -0.53691-0.0316-1.0671-0.0801-1.5918zm0.082 1.791c-3e-3 0.5522-0.0284 1.1046-0.082 1.6543 0.0507-0.5452 0.0798-1.096 0.082-1.6543zm-0.15039 2.1934c-0.0398 0.3114-0.0847 0.62076-0.14062 0.92969 0.0539-0.30757 0.10219-0.61694 0.14062-0.92969zm-42.559 0.37891h6.334c0.88598 6.1464 4.7974 11.283 10.188 13.861-0.0186-0.0055-0.038-0.0082-0.0566-0.01367-6.6901-1.9809-12.534-6.6753-15.91-12.781-0.19396-0.35077-0.37733-0.70718-0.55469-1.0664zm12.195 0h7.1211c0.0797 0.15432 0.16679 0.30353 0.25976 0.44922l-3.5586 6.1641c-1.8976-1.7209-3.265-4.0093-3.8223-6.6133zm17.324 0h7.1191c-0.55714 2.604-1.9231 4.8924-3.8203 6.6133l-3.5586-6.1641c0.093-0.1457 0.18001-0.29488 0.25976-0.44922zm-5.3574 3.0879c0.0854 0.0037 0.16969 0.01172 0.25586 0.01172 0.0862 0 0.17044-0.0079 0.25586-0.01172l3.5664 6.1758c-1.2046 0.38398-2.4871 0.5957-3.8223 0.5957-1.3352 0-2.6176-0.21173-3.8223-0.5957z" clip-path="url(#clipPath1777)" filter="url(#filter1773)" stop-color="#000000" style="paint-order:stroke markers fill"/>
    <path d="m202.28 5.0865c-2.443 0-4.4465 1.7939-4.7847 4.1403h-3.2008v1.4004h3.2008c0.33823 2.3465 2.3417 4.1403 4.7847 4.1403 2.6816 0 4.8405-2.1589 4.8405-4.8405 0-2.6816-2.1589-4.8405-4.8405-4.8405zm0 1.5317c0.35326 0 0.6926 0.056018 1.0113 0.15761l-0.94361 1.634c-0.0226-9.861e-4 -0.0449-0.0031-0.0677-0.0031s-0.0451 0.00211-0.0677 0.0031l-0.94362-1.634c0.31874-0.1016 0.65805-0.15761 1.0113-0.15761zm-2.2226 0.85886 0.94154 1.6309c-0.0246 0.038545-0.0476 0.078023-0.0687 0.11886h-1.8841c0.14745-0.68896 0.50924-1.2944 1.0113-1.7498zm4.4452 0c0.50196 0.45533 0.86339 1.0608 1.0108 1.7498h-1.8836c-0.0211-0.040833-0.0441-0.080311-0.0687-0.11886zm-5.4565 3.1502h1.8841c0.0211 0.04083 0.0441 0.08031 0.0687 0.11886l-0.94154 1.6309c-0.50207-0.45533-0.86386-1.0608-1.0113-1.7498zm4.5837 0h1.8836c-0.14741 0.68896-0.50884 1.2944-1.0108 1.7498l-0.94154-1.6309c0.0246-0.03855 0.0476-0.07802 0.0687-0.11886zm-1.4175 0.817c0.0226 9.87e-4 0.0449 0.0031 0.0677 0.0031s0.0451-0.0021 0.0677-0.0031l0.94361 1.634c-0.31871 0.1016-0.65805 0.15761-1.0113 0.15761s-0.69257-0.05602-1.0113-0.15761z" fill="url(#linearGradient3229)" stop-color="#000000" style="paint-order:stroke markers fill"/>
    <path transform="translate(4.7794)" d="m200.45 4.7661c-0.79695-0.00293-1.5939 0.11494-2.3534 0.3576 0.49609 0.068078 0.97925 0.21544 1.432 0.42891 9e-3 0.00427 0.0183 0.00808 0.0274 0.012402 0.14031 0.067184 0.2772 0.14146 0.41082 0.22118 0.0176 0.010566 0.0352 0.021254 0.0527 0.032039 0.11794 0.072303 0.2325 0.15041 0.34417 0.23203 0.0495 0.036801 0.0977 0.075003 0.14573 0.11369 0.0279 0.021984 0.0547 0.045132 0.0822 0.067696 0.93328 0.78718 1.5691 1.9275 1.7115 3.1409 0.10149 0.86464-0.0407 1.7568-0.40566 2.5471-1.6e-4 3.48e-4 -3.6e-4 6.85e-4 -5.2e-4 9.99e-4 -0.54953 1.078-1.5527 1.9058-2.6939 2.3167-1.2165 0.43799-2.574 0.42082-3.8137 0.05374-1.7701-0.52411-3.3163-1.7662-4.2096-3.3817-0.89328-1.6155-1.1231-3.5857-0.6258-5.3635-0.95994 0.38243-1.7882 1.0867-2.3203 1.9725-0.66115 1.1006-0.85012 2.4747-0.51056 3.713-0.29411-0.06499-0.57002-0.21084-0.7891-0.41755-0.18414-0.17373-0.328-0.39004-0.41755-0.62684-0.22125 0.47899-0.37776 0.98792-0.46405 1.5084-0.16999 1.0254-0.0646 2.087 0.23926 3.0809 0.3039 0.99393 0.80235 1.9222 1.4082 2.7668 1.7352 2.4189 4.4068 4.1628 7.3329 4.7108 3.0973 0.58014 6.4162-0.20169 8.9571-2.0655 1.4578-1.0693 2.6715-2.4905 3.4039-4.1434 0.7324-1.6529 0.96851-3.5388 0.56431-5.301-0.47535-2.0723-1.8503-3.9221-3.6974-4.9749-1.1545-0.65799-2.4824-0.99815-3.8106-1.003z" clip-path="url(#clipPath1835)" filter="url(#filter1937)" stop-color="#000000" style="font-variation-settings:normal"/>
    <path d="m205.23 4.7661c-0.79695-0.00293-1.5939 0.11494-2.3534 0.3576 0.49609 0.068078 0.97925 0.21544 1.432 0.42891 9e-3 0.00427 0.0183 0.00808 0.0274 0.012402 0.14031 0.067184 0.2772 0.14146 0.41082 0.22118 0.0176 0.010566 0.0352 0.021254 0.0527 0.032039 0.11794 0.072303 0.2325 0.15041 0.34417 0.23203 0.0495 0.036801 0.0977 0.075003 0.14573 0.11369 0.0279 0.021984 0.0547 0.045132 0.0822 0.067696 0.93328 0.78718 1.5691 1.9275 1.7115 3.1409 0.10149 0.86464-0.0407 1.7568-0.40566 2.5471-1.6e-4 3.48e-4 -3.6e-4 6.85e-4 -5.2e-4 9.99e-4 -0.54953 1.078-1.5527 1.9058-2.6939 2.3167-1.2165 0.43799-2.574 0.42082-3.8137 0.05374-1.7701-0.52411-3.3163-1.7662-4.2096-3.3817-0.89328-1.6155-1.1231-3.5857-0.6258-5.3635-0.95994 0.38243-1.7882 1.0867-2.3203 1.9725-0.66115 1.1006-0.85012 2.4747-0.51056 3.713-0.29411-0.06499-0.57002-0.21084-0.7891-0.41755-0.18414-0.17373-0.328-0.39004-0.41755-0.62684-0.22125 0.47899-0.37776 0.98792-0.46405 1.5084-0.16999 1.0254-0.0646 2.087 0.23926 3.0809 0.3039 0.99393 0.80235 1.9222 1.4082 2.7668 1.7352 2.4189 4.4068 4.1628 7.3329 4.7108 3.0973 0.58014 6.4162-0.20169 8.9571-2.0655 1.4578-1.0693 2.6715-2.4905 3.4039-4.1434 0.7324-1.6529 0.96851-3.5388 0.56431-5.301-0.47535-2.0723-1.8503-3.9221-3.6974-4.9749-1.1545-0.65799-2.4824-0.99815-3.8106-1.003z" fill="url(#linearGradient3231)" stop-color="#000000" style="font-variation-settings:normal"/>
    <path d="m196.63-2.7383c-0.2932 0.25456-0.51916 0.58563-0.64957 0.95136-0.183 0.51321-0.17362 1.0881 0 1.6046 0.17362 0.51646 0.50672 0.97389 0.9281 1.3193 0.47529 0.38959 1.0522 0.63013 1.6568 0.75448v1.1694h-1.1808c-0.16593-0.49736-0.62884-0.85628-1.1834-0.85628-0.6942 0-1.2532 0.55895-1.2532 1.2532 0 0.69421 0.55895 1.2532 1.2532 1.2532 0.55479 0 1.0176-0.35962 1.1834-0.85731h1.974v-1.8655c0.0536 0.00237 0.10718 0.00697 0.16071 0.00775 1.2876 0.018748 2.5777-0.40035 3.6086-1.172-0.32207-0.14274-0.62134-0.33726-0.88211-0.57413-0.16115-0.14638-0.30745-0.30861-0.46974-0.45372-0.1623-0.14511-0.34408-0.27459-0.55139-0.34106-0.32435-0.104-0.67903-0.0436-1.002 0.064596s-0.63014 0.2627-0.95859 0.35295c-0.55275 0.15188-1.1653 0.10822-1.6707-0.16226-0.42052-0.22505-0.75713-0.60311-0.93173-1.047-0.17459-0.44385-0.18597-0.95022-0.0315-1.4015z" fill="url(#linearGradient3233)" stop-color="#000000" style="font-variation-settings:normal"/>
    <path d="m200.74-2.4713c0.59499-0.18053 1.2332-0.21666 1.8448-0.10442 0.40456 0.074247 0.79887 0.21349 1.1506 0.42682 0.35167 0.21333 0.65997 0.50188 0.8799 0.84947 0.1907 0.3014 0.31207 0.64029 0.45953 0.96504 0.14747 0.32475 0.32911 0.64574 0.60791 0.86817 0.32281 0.25754 0.7458 0.35943 1.079 0.60333 0.23746 0.1738 0.42264 0.41809 0.52582 0.69367-0.14721-0.056037-0.29544-0.10937-0.44461-0.15995-0.44485-0.15086-0.89838-0.27747-1.3343-0.4525-0.73205-0.29394-1.4173-0.73139-1.926-1.3343-0.42963-0.50917-0.72741-1.1268-1.2067-1.5896-0.44111-0.42593-1.0263-0.69986-1.636-0.76577z" fill="url(#linearGradient3235)" stop-color="#000000" style="font-variation-settings:normal"/>
    <path d="m202.28 9.2762c0.36054 0 0.6508 0.29025 0.6508 0.65079 0 0.36054-0.29026 0.65079-0.6508 0.65079s-0.65079-0.29025-0.65079-0.65079c0-0.36054 0.29025-0.65079 0.65079-0.65079z" fill="#201c1a" stop-color="#000000" style="paint-order:stroke markers fill"/>
    <path transform="matrix(.26458 0 0 .26458 4.7794 0)" d="m759.04 20.611c4.5987 2.8243 7.8817 7.7002 8.7695 13.023 0.25163 1.5087 0.31289 3.0439 0.20313 4.5684 1.4331 0.30838 2.8716 0.59092 4.3086 0.88086 0.38835-3.788-0.33628-7.695-2.1387-11.053 1.2164 0.82333 2.3336 1.7949 3.3184 2.8848 2.3148 2.5619 3.8807 5.7913 4.459 9.1953 3e-3 0.01943 5e-3 0.03916 8e-3 0.05859 1.547 0.27492 3.0959 0.54115 4.6465 0.79492-0.75768-2.6382-1.8802-5.1717-3.3594-7.4844-2.7811-4.3484-6.769-7.9162-11.4-10.195-2.7671-1.3617-5.7573-2.2679-8.8145-2.6738zm-42.562 7.0488c-1.2521 1.5123-2.244 3.2392-2.916 5.084-1.4718 4.0401-1.3236 8.6265 0.34179 12.588 1.6522-1.5168 3.235-3.1077 4.7305-4.7793-1.6529-4.0713-2.4137-8.5052-2.1562-12.893zm53.271 12.557c-0.48227-0.03777-0.887 0.01431-1.2188 0.15625-0.6832 0.27924-1.1049 0.95854-1.3906 2.0645-0.18897 0.73136-0.42324 1.4512-0.69726 2.1562-0.13059 0.33608-0.27114 0.66931-0.41993 0.99805 5.1502 3.5274 10.469 6.634 15.953 9.3203 0.22336-0.58931 0.43175-1.1845 0.62305-1.7852 0.42575-1.3379 0.76853-2.704 1.0137-4.0859 0.33777-1.904 0.0695-3.4534-0.56641-4.5195-0.65944-1.1055-1.6494-1.6833-2.9043-1.9141-0.46696-0.08588-0.93348-0.17825-1.4004-0.27539-1.8354-0.38186-2.9508 0.03305-3.5703 1.2949-0.0158-0.0054-0.0311-0.01026-0.0469-0.01563-0.15582-0.69858-0.50582-1.2625-1.0156-1.7051-0.51084-0.46085-1.1868-0.8082-2.0273-1.0859-0.21777-0.07196-0.43658-0.14638-0.6543-0.2207-0.63678-0.21739-1.1955-0.34504-1.6777-0.38281zm0.5332 2.6895c0.28165-7.52e-4 0.6416 0.09299 1.084 0.2793 0.30298 0.1276 0.60654 0.25274 0.91016 0.37695 0.62333 0.25502 1.0433 0.56429 1.2539 0.95312 0.21248 0.36982 0.26259 0.83488 0.125 1.3848-0.0897 0.35829-0.18763 0.71493-0.29297 1.0723-1.4304-0.69908-2.8498-1.4288-4.2598-2.1895 0.11701-0.37356 0.22383-0.74826 0.32032-1.125 0.10541-0.41166 0.30067-0.65065 0.60351-0.7207 0.0761-0.02104 0.16198-0.031 0.25586-0.03125zm-49.947 0.3418c-4.1892 4.4261-8.7818 8.2462-13.777 11.461 0.65566 1.1144 1.3343 2.2173 2.0371 3.3047 2.0486-1.5999 4.0202-3.3103 5.916-5.1309 0.20862 0.2996 0.4196 0.59681 0.63281 0.89258 0.42536 0.59007 0.61383 1.1183 0.55859 1.6035-0.0431 0.496-0.35102 1.0758-0.9375 1.7051-0.78383 0.84098-1.5805 1.6624-2.3926 2.4648-0.4975 0.49156-0.8259 0.83715-0.99414 1.0625-0.16594 0.22182-0.31627 0.49329-0.45312 0.81641 0.77093 1.069 1.5687 2.1173 2.3965 3.1406 0.0997-0.39476 0.24553-0.73093 0.4336-1.0156 0.20121-0.29963 0.47984-0.65656 0.83789-1.0781 0.73198-0.86184 1.4505-1.7402 2.1562-2.6348 0.7096-0.89941 1.1577-1.7713 1.3652-2.5586 0.22095-0.77741 0.16229-1.5321-0.16016-2.2715 0.0116-0.01444 0.0235-0.02853 0.0352-0.04297 1.175 0.61366 2.3415 0.02359 3.4863-1.6992 0.22568-0.33961 0.4494-0.67981 0.67187-1.0234 0.8443-1.3041 1.2505-2.5289 1.2774-3.5469 0.0375-1.0496-0.32186-1.9776-1.0566-2.8555-0.70706-0.8447-1.3844-1.7106-2.0332-2.5938zm-14.711 0.53516c-0.52767 2.6613-0.53139 5.4235-0.0312 8.0898 1.6738-1.1153 3.3001-2.304 4.8691-3.5625 0.77273-0.61981 1.5226-1.2671 2.2676-1.9199-1.0304 0.09034-2.0752 0.0181-3.0742-0.25-1.5213-0.40823-2.9292-1.232-4.0312-2.3574zm71.818 1.5176c0.2727 0.0077 0.59634 0.07252 0.97461 0.19336 0.48135 0.15377 0.96444 0.30397 1.4473 0.44922 0.60171 0.18101 1.0143 0.44643 1.2266 0.82031 0.19635 0.36914 0.24562 0.87193 0.12696 1.4941-0.12889 0.67591-0.28098 1.3501-0.45703 2.0195-1.703-0.69066-3.393-1.4234-5.0684-2.1973 0.12585-0.44214 0.24045-0.88465 0.34375-1.3281 0.15998-0.68673 0.39602-1.1168 0.74609-1.3047 0.16735-0.10513 0.38745-0.15416 0.66016-0.14648zm-12.125 1.7012c-0.34424 0.62573-0.72143 1.2338-1.1289 1.8203 3.6386 3.4433 7.452 6.6056 11.439 9.4883 0.52968 0.38293 0.8313 0.79458 0.89063 1.248 0.071 0.43377-0.0575 0.91284-0.39649 1.418-0.32307 0.48139-0.69541 0.77247-1.0996 0.87305-0.02 5e-3 -0.0404 0.0096-0.0605 0.01367-0.1544 0.02508-0.31434 0.01698-0.48242-0.02734-0.28433-0.07534-0.58711-0.2499-0.90821-0.52148-3.8439-3.2512-7.4359-6.821-10.773-10.709-0.4863 0.55802-1.0004 1.0908-1.541 1.5957 2.9631 4.2316 6.2524 8.1316 9.8691 11.701 1.1521 1.1371 2.3809 1.6412 3.6602 1.4492 0.84511-0.13649 1.672-0.58604 2.4394-1.3477 0.0821-0.08146 0.1635-0.16533 0.24414-0.25391 0.28801-0.31644 0.5661-0.6786 0.83203-1.0859 1.0374-1.5889 1.385-3.096 1.1484-4.373-0.25297-1.2925-1.0655-2.2953-2.3535-3.0859-4.0464-2.4837-7.973-5.2174-11.779-8.2031zm-45.348 0.08789c0.22739 0.2959 0.45799 0.58993 0.69141 0.88086 0.27 0.33651 0.37344 0.69982 0.31054 1.1016-0.0529 0.4104-0.28554 0.90528-0.70898 1.459-0.30168 0.39448-0.60539 0.78621-0.91211 1.1738-0.4547 0.57463-0.87154 0.86331-1.2539 0.86523-0.37033 0.01567-0.73827-0.21332-1.0879-0.68359-0.21161-0.28464-0.41998-0.5727-0.62695-0.86133 1.2301-1.2629 2.4257-2.5746 3.5879-3.9355zm6.9766 3.4844c-3.5535 5.9082-7.8273 10.961-12.84 14.947 0.77091 0.91744 1.5664 1.8132 2.3887 2.6836 0.91286-0.90431 1.7979-1.845 2.6562-2.8203 0.73303 0.73162 1.4873 1.4392 2.2637 2.123 0.22168 0.19502 0.44489 0.389 0.66992 0.58008 9e-3 -0.01822 0.0181-0.03646 0.0273-0.05469-0.47072 1.3862-0.94487 2.7868-1.4141 4.1836 0.98343 0.8402 2.0004 1.6416 3.0488 2.3984 1.6337-7.2577 3.7157-15.149 5.5293-22.141-0.23549-0.17657-0.46988-0.35458-0.70117-0.53711-0.55537-0.43826-1.0977-0.89331-1.6289-1.3633zm33.123 2.6582c-0.5752 0.4654-1.1726 0.90166-1.791 1.3086 1.2676 2.5815 2.6608 5.0693 4.1816 7.4609-0.84807 0.62432-1.7236 1.2038-2.625 1.7363-1.3476-2.5753-2.5515-5.239-3.6113-7.9922-0.65768 0.34074-1.332 0.64808-2.0195 0.92383 2.1091 7.0957 5.1666 13.716 9.1738 19.859 1.1169-0.65221 2.2037-1.3558 3.2578-2.1074-1.9523-2.5597-3.7292-5.2289-5.3301-8.0059 0.9627-0.59515 1.8986-1.2397 2.8027-1.9316 1.7789 2.5693 3.7126 5.022 5.8008 7.3594 0.97939-0.8491 1.9214-1.7405 2.8242-2.6719-4.8723-4.7336-9.0935-10.047-12.664-15.939zm-28.98 0.51367c-1.534 7.3239-3.1688 15.211-4.3457 22.852 1.4671 0.88365 2.9889 1.6746 4.5586 2.3555 0.83638-2.334 1.601-4.6974 2.3164-7.0898 0.11457-0.38115 0.22774-0.76213 0.33984-1.1445 1.3267-4.5376 2.4787-9.1437 3.582-13.787-0.4193-0.14324-0.83502-0.2964-1.2461-0.46094-0.0347-0.01387-0.0689-0.02894-0.10352-0.04297-0.18591-0.07535-0.3707-0.15322-0.55468-0.23242-1.5416 5.7271-3.21 11.3-5.2559 16.756-0.0186-0.0095-0.038-0.01979-0.0566-0.0293 0.71684-6.0503 1.6873-12.144 2.6758-18.023-0.65054-0.36136-1.2866-0.74563-1.9102-1.1523zm-4.5625 1.1602c0.0113 0.0094 0.024 0.01793 0.0352 0.02734-0.80333 2.4113-1.6112 4.7987-2.4297 7.2051-0.0926 0.27169-0.97185 2.8435-1.0644 3.1152-0.11168-0.09414-0.22311-0.18806-0.33399-0.2832-0.63329-0.54441-1.2516-1.1065-1.8555-1.6855 2.0557-2.5992 3.9377-5.4016 5.6484-8.3789zm26.119 2.3242c-0.43652 0.13937-0.87621 0.26629-1.3203 0.37891-0.11305 0.02868-0.22641 0.05517-0.33984 0.08203-0.0826 0.01956-0.16523 0.03999-0.24805 0.05859 0.75505 4.4886 1.8866 8.8628 3.3945 13.125-0.0187 0.0058-0.0378 0.01184-0.0566 0.01758-2.5041-3.979-4.3227-8.258-5.5039-12.768-0.92023 0.11382-1.8473 0.17157-2.7754 0.17578 0.22615 7.7875 1.3827 15.517 3.4707 23.188 1.1391-0.15353 2.2724-0.36298 3.3926-0.62695-1.936-5.4022-3.3276-10.885-4.1738-16.447 0.0159-0.0019 0.031-0.0039 0.0469-0.0059 1.8977 5.4565 4.7603 10.537 8.6465 15.076 0.30393-0.11387 0.60534-0.23196 0.90625-0.35352 0.18904-0.07636 0.37859-0.1532 0.56641-0.23242 0.73742-0.31133 1.4643-0.64372 2.1816-0.99805-3.7287-6.4755-6.4579-13.366-8.1875-20.67zm-14.086 0.02539c-0.93698 7.7648-1.5929 15.6-1.9688 23.504 2.986 0.75537 6.0732 1.107 9.1504 1.0176 0.4399-0.01267 0.87937-0.03426 1.3184-0.06445-0.24071-1.115-0.46351-2.2285-0.66992-3.3438-0.40487 0.0206-0.81029 0.03238-1.2148 0.03711-1.6408 0.0229-3.286-0.0862-4.9141-0.32227-0.0718-2.4421-0.0969-4.8782-0.0781-7.3066 1.3444 0.22604 2.7018 0.35687 4.0566 0.38672-0.10393-1.1225-0.19325-2.2437-0.26562-3.3652-1.2486-0.04789-2.4985-0.18503-3.7363-0.40625 0.0525-2.0839 0.1382-4.1625 0.25781-6.2363 1.0817 0.21233 2.1763 0.35593 3.2715 0.42773 0.2702 0.01849 0.54108 0.03144 0.8125 0.04102-0.0349-1.1173-0.0541-2.234-0.0547-3.3516-0.25218-0.01207-0.50404-0.02901-0.75586-0.04883-1.762-0.13883-3.5118-0.46658-5.209-0.96875z" filter="url(#filter2490)" stop-color="#000000" style="font-variation-settings:normal"/>
    <path d="m205.61 5.4534c1.2167 0.74727 2.0854 2.0373 2.3203 3.4458 0.0666 0.39917 0.0828 0.80536 0.0538 1.2087 0.37917 0.08159 0.75978 0.15635 1.14 0.23306 0.10275-1.0023-0.089-2.036-0.56586-2.9244 0.32185 0.21784 0.61743 0.4749 0.87799 0.76326 0.61247 0.67783 1.0268 1.5323 1.1798 2.4329 8.7e-4 0.0051 1e-3 0.01036 2e-3 0.0155 0.40931 0.07274 0.81911 0.14318 1.2294 0.21032-0.20047-0.69804-0.49747-1.3683-0.88884-1.9802-0.73584-1.1505-1.791-2.0945-3.0164-2.6975-0.73213-0.36028-1.5233-0.60006-2.3322-0.70745zm-11.261 1.865c-0.33129 0.40013-0.59371 0.85704-0.77152 1.3451-0.38942 1.069-0.35022 2.2824 0.0904 3.3305 0.43715-0.40132 0.85594-0.82224 1.2516-1.2645-0.43733-1.0772-0.63861-2.2503-0.57051-3.4112zm14.095 3.3223c-0.1276-0.01-0.23468 0.0038-0.32246 0.04134-0.18076 0.07388-0.29233 0.25361-0.36794 0.54622-0.05 0.1935-0.11198 0.38395-0.18448 0.57051-0.0345 0.08892-0.0717 0.17709-0.11111 0.26407 1.3627 0.93328 2.7698 1.7552 4.2209 2.466 0.0591-0.15592 0.11423-0.3134 0.16484-0.47232 0.11265-0.35398 0.20334-0.71544 0.2682-1.0811 0.0894-0.50377 0.0184-0.91372-0.14986-1.1958-0.17447-0.29249-0.43639-0.44536-0.76843-0.50643-0.12355-0.02272-0.24698-0.04716-0.37052-0.07286-0.48563-0.10103-0.78072 0.0087-0.94464 0.34262-4e-3 -0.0014-8e-3 -0.0027-0.0124-0.0041-0.0412-0.18483-0.13383-0.33404-0.26872-0.45114-0.13516-0.12193-0.31401-0.21384-0.5364-0.28732-0.0576-0.01904-0.11551-0.03873-0.17312-0.05839-0.16848-0.05752-0.3163-0.09129-0.4439-0.10129zm0.14108 0.71158c0.0745-1.99e-4 0.16975 0.0246 0.2868 0.0739 0.0802 0.03376 0.16048 0.06687 0.24081 0.09974 0.16493 0.06748 0.27604 0.1493 0.33177 0.25218 0.0562 0.09785 0.0695 0.2209 0.0331 0.36639-0.0237 0.0948-0.0496 0.18916-0.0775 0.2837-0.37846-0.18497-0.75402-0.37804-1.1271-0.57929 0.031-0.09884 0.0592-0.19798 0.0847-0.29766 0.0279-0.10892 0.0796-0.17215 0.15968-0.19069 0.0201-0.0056 0.0429-0.0082 0.0677-0.0083zm-13.215 0.09043c-1.1084 1.1711-2.3235 2.1818-3.6452 3.0324 0.17347 0.29486 0.35304 0.58665 0.53898 0.87437 0.54203-0.4233 1.0637-0.87585 1.5653-1.3575 0.0552 0.07927 0.11102 0.15791 0.16743 0.23616 0.11255 0.15612 0.16241 0.29589 0.1478 0.42426-0.0114 0.13123-0.0929 0.28465-0.24805 0.45114-0.20739 0.22251-0.41816 0.43985-0.63304 0.65216-0.13163 0.13006-0.21851 0.2215-0.26303 0.28112-0.0439 0.05869-0.0837 0.13052-0.11989 0.21601 0.20398 0.28283 0.41506 0.56021 0.63407 0.83096 0.0264-0.10445 0.065-0.19339 0.11473-0.26872 0.0532-0.07928 0.12695-0.17371 0.22169-0.28525 0.19367-0.22803 0.38377-0.46043 0.57051-0.69712 0.18774-0.23797 0.30631-0.46866 0.36121-0.67696 0.0585-0.20569 0.0429-0.40538-0.0424-0.601 3e-3 -0.0038 6e-3 -0.0075 9e-3 -0.01137 0.31088 0.16236 0.61952 0.0062 0.92242-0.44958 0.0597-0.08986 0.11891-0.17987 0.17777-0.27078 0.22339-0.34504 0.33086-0.66911 0.33797-0.93844 0.01-0.2777-0.0852-0.52325-0.27957-0.75551-0.18708-0.22349-0.3663-0.45259-0.53796-0.68626zm-3.8923 0.14159c-0.13962 0.70414-0.1406 1.435-8e-3 2.1404 0.44286-0.29509 0.87316-0.6096 1.2883-0.94258 0.20445-0.16399 0.40284-0.33524 0.59996-0.50798-0.27262 0.0239-0.54905 0.0048-0.81338-0.06615-0.40251-0.10801-0.77503-0.32598-1.0666-0.62373zm19.002 0.40152c0.0721 2e-3 0.15778 0.01919 0.25786 0.05116 0.12736 0.04068 0.25518 0.08043 0.38292 0.11886 0.15921 0.04789 0.26837 0.11812 0.32453 0.21704 0.052 0.09767 0.065 0.2307 0.0336 0.39532-0.0341 0.17884-0.0743 0.3572-0.12092 0.53433-0.45058-0.18274-0.89773-0.37662-1.341-0.58136 0.0333-0.11698 0.0636-0.23406 0.0909-0.3514 0.0423-0.1817 0.10478-0.29548 0.1974-0.3452 0.0443-0.02782 0.10251-0.04079 0.17467-0.03876zm-3.2081 0.4501c-0.0911 0.16556-0.19087 0.32645-0.29869 0.48162 0.96272 0.91105 1.9717 1.7477 3.0267 2.5104 0.14015 0.10132 0.21995 0.21023 0.23565 0.33021 0.0188 0.11477-0.0152 0.24152-0.10491 0.37517-0.0855 0.12737-0.18399 0.20438-0.29094 0.23099-5e-3 0.0013-0.0107 0.0025-0.016 0.0036-0.0409 0.0066-0.0832 0.0045-0.12764-0.0072-0.0752-0.01993-0.15534-0.06612-0.2403-0.13798-1.017-0.86021-1.9674-1.8047-2.8505-2.8334-0.12867 0.14764-0.26469 0.2886-0.40773 0.4222 0.78399 1.1196 1.6543 2.1515 2.6112 3.0959 0.30482 0.30085 0.62995 0.43423 0.96842 0.38344 0.2236-0.03611 0.44239-0.15506 0.64543-0.35657 0.0217-0.02155 0.0433-0.04375 0.0646-0.06718 0.0762-0.08373 0.14978-0.17955 0.22014-0.28732 0.27447-0.4204 0.36646-0.81915 0.30386-1.157-0.0669-0.34196-0.28191-0.6073-0.6227-0.81649-1.0706-0.65715-2.1095-1.3804-3.1166-2.1704zm-11.998 0.02325c0.0602 0.07829 0.12118 0.15608 0.18293 0.23306 0.0714 0.08904 0.0988 0.18516 0.0822 0.29146-0.014 0.10858-0.0755 0.23952-0.18759 0.38602-0.0798 0.10438-0.16017 0.20802-0.24133 0.31058-0.1203 0.15204-0.23059 0.22842-0.33176 0.22893-0.098 0.0041-0.19533-0.05644-0.28784-0.18087-0.056-0.07531-0.11112-0.15153-0.16588-0.22789 0.32546-0.33414 0.64181-0.68119 0.9493-1.0413zm1.8459 0.92191c-0.94019 1.5632-2.071 2.9001-3.3972 3.9548 0.20397 0.24274 0.41446 0.47973 0.632 0.71004 0.24153-0.23927 0.47571-0.48815 0.7028-0.74621 0.19395 0.19358 0.39352 0.3808 0.59893 0.56172 0.0587 0.0516 0.11771 0.10292 0.17725 0.15348 2e-3 -0.0048 5e-3 -0.0096 7e-3 -0.01447-0.12454 0.36677-0.25 0.73734-0.37414 1.1069 0.2602 0.2223 0.52929 0.43434 0.80667 0.63459 0.43225-1.9203 0.98312-4.0083 1.463-5.858-0.0623-0.04672-0.12432-0.09382-0.18552-0.14211-0.14694-0.11596-0.29043-0.23636-0.43098-0.3607zm8.7638 0.70332c-0.15219 0.12314-0.31024 0.23856-0.47388 0.34623 0.33538 0.68302 0.70401 1.3413 1.1064 1.974-0.22439 0.16518-0.45605 0.31852-0.69454 0.4594-0.35655-0.68139-0.67507-1.3861-0.95549-2.1146-0.17401 0.09015-0.35242 0.17147-0.53434 0.24443 0.55803 1.8774 1.367 3.6289 2.4272 5.2545 0.29553-0.17256 0.58307-0.35871 0.86197-0.55759-0.51654-0.67726-0.98668-1.3835-1.4102-2.1182 0.25471-0.15747 0.50235-0.328 0.74156-0.51108 0.47066 0.6798 0.98229 1.3287 1.5348 1.9472 0.25914-0.22466 0.50836-0.46051 0.74725-0.70693-1.2891-1.2524-2.406-2.6582-3.3507-4.2173zm-7.6678 0.13591c-0.40589 1.9378-0.83843 4.0247-1.1498 6.0461 0.38817 0.2338 0.7908 0.44306 1.2061 0.62322 0.22129-0.61755 0.42359-1.2429 0.61288-1.8759 0.0303-0.10084 0.0602-0.20165 0.0899-0.30282 0.35103-1.2006 0.65584-2.4193 0.94775-3.6478-0.11094-0.0379-0.22093-0.07842-0.32969-0.12196-9e-3 -0.0037-0.0183-0.0077-0.0274-0.01137-0.0492-0.01994-0.0981-0.04054-0.14676-0.0615-0.40789 1.5153-0.84933 2.9898-1.3906 4.4333-5e-3 -0.0025-0.0101-0.0052-0.015-0.0078 0.18966-1.6008 0.44643-3.213 0.70796-4.7687-0.17212-0.09561-0.34041-0.19728-0.50539-0.30489zm-1.2072 0.30696c3e-3 0.0025 6e-3 0.0047 9e-3 0.0072-0.21255 0.638-0.4263 1.2697-0.64286 1.9063-0.0245 0.07188-0.25713 0.75235-0.28163 0.82424-0.0296-0.02491-0.059-0.04976-0.0884-0.07493-0.16756-0.14404-0.33116-0.29276-0.49093-0.44597 0.54391-0.68771 1.0419-1.4292 1.4945-2.2169zm6.9107 0.61495c-0.1155 0.03688-0.23184 0.07046-0.34934 0.10025-0.0299 0.0076-0.0599 0.0146-0.0899 0.0217-0.0219 0.0052-0.0437 0.01058-0.0656 0.0155 0.19977 1.1876 0.49917 2.345 0.89813 3.4727-5e-3 0.0015-0.01 0.0031-0.015 0.0046-0.66253-1.0528-1.1437-2.1849-1.4562-3.3781-0.24347 0.03011-0.48876 0.04539-0.73432 0.04651 0.0598 2.0605 0.36585 4.1054 0.91829 6.135 0.30138-0.04062 0.60125-0.09604 0.89762-0.16588-0.51222-1.4293-0.88044-2.8801-1.1043-4.3517 4e-3 -5.02e-4 8e-3 -1e-3 0.0124-0.0016 0.5021 1.4437 1.2595 2.788 2.2877 3.9889 0.0804-0.03013 0.16017-0.06137 0.23978-0.09353 0.05-0.0202 0.10017-0.04054 0.14987-0.0615 0.19511-0.08237 0.38744-0.17032 0.57722-0.26407-0.98655-1.7133-1.7086-3.5365-2.1663-5.4689zm-3.7269 0.0067c-0.24791 2.0544-0.42144 4.1275-0.5209 6.2187 0.79005 0.19986 1.6069 0.2929 2.421 0.26923 0.11639-0.0034 0.23267-0.0091 0.34882-0.01705-0.0637-0.295-0.12264-0.58963-0.17725-0.8847-0.10712 0.0055-0.21439 0.0086-0.32143 0.0098-0.43413 0.0061-0.86941-0.02281-1.3002-0.08527-0.019-0.64613-0.0256-1.2907-0.0207-1.9332 0.35571 0.05981 0.71486 0.09442 1.0733 0.10232-0.0275-0.29698-0.0511-0.59364-0.0703-0.89038-0.33034-0.01267-0.66105-0.04896-0.98857-0.10749 0.0139-0.55136 0.0366-1.1013 0.0682-1.65 0.2862 0.05618 0.57582 0.09417 0.86558 0.11317 0.0715 0.0049 0.14316 0.0083 0.21498 0.01085-9e-3 -0.29561-0.0143-0.59108-0.0145-0.88677-0.0667-0.0032-0.13336-0.0077-0.19999-0.01292-0.46619-0.03673-0.92916-0.12345-1.3782-0.25632z" fill="url(#linearGradient3237)" stop-color="#000000" style="font-variation-settings:normal"/>
    <path transform="matrix(.26458 0 0 .26458 4.7794 0)" d="m737.06 3.332 7.4023 14.297 6.0762 1.2383c2.3156-0.57174 4.6979-0.86229 7.084-0.85352 5.0202 0.01848 10.039 1.3041 14.402 3.791 3.4182 1.9482 6.4044 4.6222 8.7773 7.7598-7e-3 -1.5244-0.14244-3.0483-0.43359-4.5449-0.87878-4.5172-3.0572-8.7738-6.209-12.127-2.847-3.0288-6.4768-5.3164-10.438-6.5781z" clip-path="url(#clipPath2023)" fill="url(#linearGradient3239)" filter="url(#filter2181)" stop-color="#000000" style="font-variation-settings:normal"/>
   </g>
  </g>
 </g>
</svg>
